<svg width="383" height="374" viewBox="0 0 383 374" fill="none" xmlns="http://www.w3.org/2000/svg">
<g clip-path="url(#clip0_26_80)">
<path d="M244.283 83.8374H223.905V257.943C223.905 260.675 223.368 263.38 222.325 265.904C221.282 268.427 219.753 270.721 217.825 272.652C215.898 274.584 213.609 276.116 211.091 277.161C208.573 278.207 205.873 278.745 203.147 278.745H47.3452V278.944C47.3452 281.675 47.8821 284.38 48.9253 286.904C49.9684 289.428 51.4974 291.721 53.4249 293.653C55.3524 295.584 57.6407 297.116 60.1591 298.162C62.6775 299.207 65.3767 299.745 68.1026 299.745H244.283C247.009 299.745 249.708 299.207 252.227 298.162C254.745 297.116 257.034 295.584 258.961 293.653C260.889 291.721 262.418 289.428 263.461 286.904C264.504 284.38 265.041 281.675 265.041 278.944V104.639C265.041 99.1219 262.854 93.831 258.961 89.93C255.068 86.029 249.789 83.8374 244.283 83.8374Z" fill="#F2F2F2"/>
<path d="M340.887 360.519C341.248 360.535 341.605 360.44 341.91 360.247C342.215 360.053 342.453 359.77 342.593 359.436C342.732 359.102 342.766 358.734 342.689 358.38C342.612 358.026 342.429 357.705 342.163 357.459L342.043 356.978C342.059 356.94 342.075 356.901 342.091 356.863C342.454 356.003 343.063 355.269 343.841 354.755C344.619 354.24 345.532 353.968 346.464 353.971C347.396 353.975 348.307 354.254 349.081 354.774C349.855 355.295 350.459 356.033 350.816 356.896C352.243 360.34 354.06 363.79 354.507 367.431C354.704 369.041 354.621 370.673 354.261 372.254C357.613 364.927 359.353 356.964 359.365 348.904C359.365 346.882 359.253 344.861 359.029 342.851C358.843 341.203 358.586 339.567 358.257 337.943C356.46 329.129 352.603 320.869 347.002 313.839C344.292 312.357 342.099 310.078 340.721 307.308C340.222 306.313 339.869 305.25 339.673 304.153C339.979 304.194 340.826 299.527 340.596 299.24C341.022 298.592 341.785 298.27 342.25 297.638C344.565 294.493 347.754 295.042 349.419 299.316C352.975 301.114 353.01 304.098 350.827 306.967C349.439 308.792 349.248 311.262 348.03 313.216C348.155 313.377 348.286 313.533 348.411 313.693C350.702 316.646 352.699 319.816 354.373 323.158C353.966 319.414 354.451 315.626 355.79 312.106C357.147 308.826 359.69 306.063 361.93 303.227C362.522 302.466 363.327 301.897 364.242 301.593C365.156 301.29 366.14 301.264 367.069 301.521C367.999 301.778 368.831 302.305 369.461 303.035C370.091 303.766 370.491 304.667 370.61 305.626C370.615 305.667 370.619 305.709 370.624 305.751C370.291 305.939 369.966 306.139 369.647 306.35C369.247 306.618 368.937 307.001 368.757 307.448C368.578 307.896 368.538 308.388 368.642 308.858C368.746 309.329 368.989 309.758 369.341 310.088C369.692 310.418 370.134 310.633 370.61 310.707L370.659 310.714C370.54 311.916 370.331 313.107 370.032 314.276C372.905 325.411 366.703 329.466 357.846 329.649C357.65 329.749 357.46 329.849 357.264 329.945C358.946 334.721 360.001 339.696 360.402 344.745C360.63 347.723 360.616 350.715 360.362 353.692L360.377 353.586C361.019 350.277 362.781 347.29 365.365 345.131C369.204 341.972 374.627 340.808 378.768 338.268C379.208 337.985 379.72 337.834 380.243 337.832C380.766 337.831 381.278 337.98 381.72 338.261C382.161 338.542 382.513 338.943 382.734 339.418C382.956 339.893 383.037 340.422 382.968 340.941L382.951 341.052C382.334 341.304 381.733 341.594 381.151 341.921C380.819 342.109 380.493 342.309 380.174 342.52C379.774 342.788 379.464 343.171 379.285 343.619C379.105 344.066 379.065 344.558 379.169 345.029C379.273 345.5 379.517 345.928 379.868 346.258C380.219 346.588 380.662 346.804 381.138 346.877L381.186 346.885C381.221 346.89 381.252 346.895 381.287 346.9C380.232 349.424 378.751 351.747 376.91 353.767C375.114 363.487 367.398 364.409 359.144 361.579H359.139C358.233 365.522 356.921 369.361 355.224 373.033H341.237C341.187 372.877 341.142 372.716 341.097 372.561C342.392 372.642 343.691 372.565 344.967 372.33C343.929 371.054 342.892 369.767 341.854 368.491C341.831 368.468 341.809 368.442 341.789 368.416C341.262 367.763 340.731 367.115 340.205 366.462L340.204 366.461C340.176 364.459 340.406 362.462 340.887 360.519Z" fill="#4CAF50"/>
<path d="M186.838 60.154C187.349 60.9293 188.022 61.5842 188.81 62.0734C189.598 62.5626 190.482 62.8744 191.402 62.9872C192.323 63.1001 193.256 63.0113 194.139 62.727C195.021 62.4428 195.832 61.9698 196.514 61.3408L225.592 74.4876L231.198 67.3216L196.548 51.9599C195.406 50.888 193.911 50.2731 192.347 50.2317C190.783 50.1903 189.258 50.7253 188.061 51.7354C186.864 52.7454 186.079 54.1603 185.854 55.7119C185.628 57.2635 185.979 58.8441 186.838 60.154Z" fill="#A0616A"/>
<path d="M311.631 68.3518L314.515 84.7293C314.649 85.4933 314.623 86.2771 314.437 87.0304C314.252 87.7836 313.911 88.4896 313.437 89.1031C312.963 89.7166 312.366 90.224 311.685 90.5927C311.004 90.9614 310.253 91.1833 309.481 91.2441L260.476 95.106L202.873 69.2712L209.753 56.1831L259.758 72.0517L311.631 68.3518Z" fill="#1E90FF"/>
<path d="M196.938 56.6145H20.7574C9.29342 56.6145 0 65.9276 0 77.4158V251.721C0 263.209 9.29342 272.522 20.7574 272.522H196.938C208.402 272.522 217.696 263.209 217.696 251.721V77.4158C217.696 65.9276 208.402 56.6145 196.938 56.6145Z" fill="#F2F2F2"/>
<path d="M20.7576 60.8923C18.5922 60.8923 16.4481 61.3197 14.4476 62.1501C12.4471 62.9805 10.6294 64.1976 9.09833 65.732C7.56722 67.2663 6.35266 69.0878 5.52403 71.0926C4.6954 73.0973 4.26892 75.246 4.26892 77.4159V251.721C4.26892 256.103 6.00611 260.306 9.09833 263.405C12.1906 266.504 16.3845 268.245 20.7576 268.245H133.2C143.736 268.245 154.168 266.165 163.902 262.125C173.635 258.085 182.479 252.163 189.929 244.697C197.379 237.232 203.288 228.369 207.32 218.615C211.352 208.861 213.427 198.406 213.427 187.849V77.4159C213.427 75.246 213 73.0973 212.171 71.0926C211.343 69.0878 210.128 67.2663 208.597 65.732C207.066 64.1976 205.248 62.9805 203.248 62.1501C201.247 61.3197 199.103 60.8923 196.938 60.8923H20.7576Z" fill="white"/>
<path d="M158.098 113.791H59.2119C58.3046 113.791 57.4343 113.43 56.7927 112.787C56.1511 112.144 55.7906 111.272 55.7906 110.362C55.7906 109.453 56.1511 108.581 56.7927 107.938C57.4343 107.295 58.3046 106.934 59.2119 106.934H158.098C159.006 106.934 159.876 107.295 160.518 107.938C161.159 108.581 161.52 109.453 161.52 110.362C161.52 111.272 161.159 112.144 160.518 112.787C159.876 113.43 159.006 113.791 158.098 113.791Z" fill="#F2F2F2"/>
<path d="M158.098 186.903H59.2119C58.3046 186.903 57.4343 186.542 56.7927 185.899C56.1511 185.256 55.7906 184.384 55.7906 183.475C55.7906 182.566 56.1511 181.694 56.7927 181.051C57.4343 180.408 58.3046 180.046 59.2119 180.046H158.098C159.006 180.046 159.876 180.408 160.518 181.051C161.159 181.694 161.52 182.566 161.52 183.475C161.52 184.384 161.159 185.256 160.518 185.899C159.876 186.542 159.006 186.903 158.098 186.903Z" fill="#F2F2F2"/>
<path d="M198.254 150.371H19.0562C18.1489 150.371 17.2786 150.01 16.637 149.367C15.9954 148.724 15.6349 147.852 15.6349 146.943C15.6349 146.033 15.9954 145.161 16.637 144.518C17.2786 143.875 18.1489 143.514 19.0562 143.514H198.254C199.162 143.514 200.032 143.875 200.673 144.518C201.315 145.161 201.675 146.033 201.675 146.943C201.675 147.852 201.315 148.724 200.673 149.367C200.032 150.01 199.162 150.371 198.254 150.371Z" fill="#F2F2F2"/>
<path d="M305.439 140.537L287.588 178.649L356.259 171.679L341.924 135.092L305.439 140.537Z" fill="#A0616A"/>
<path d="M321.405 359.589L314.893 359.534L312.012 333.78L321.62 333.862L321.405 359.589Z" fill="#A0616A"/>
<path d="M300.549 369.964C300.544 370.737 300.844 371.482 301.385 372.033C301.926 372.585 302.663 372.899 303.435 372.907L316.38 373.015L318.647 368.412L319.479 373.038L324.363 373.083L323.13 356.581L321.431 356.467L314.499 355.988L312.263 355.838L312.224 360.507L301.825 367.576C301.435 367.841 301.116 368.196 300.893 368.612C300.671 369.028 300.553 369.492 300.549 369.964Z" fill="black"/>
<path d="M249.351 359.618L243.143 357.648L247.939 332.183L257.101 335.09L249.351 359.618Z" fill="#A0616A"/>
<path d="M226.374 363.395C226.142 364.133 226.211 364.933 226.566 365.619C226.922 366.306 227.534 366.823 228.27 367.058L240.612 370.973L244.128 367.24L243.567 371.907L248.223 373.388L251.882 357.251L250.291 356.642L243.806 354.144L241.712 353.342L240.306 357.793L228.294 361.488C227.844 361.626 227.434 361.872 227.099 362.204C226.765 362.537 226.516 362.945 226.374 363.395Z" fill="black"/>
<path d="M353.132 160.961L290.693 172.427C290.693 172.427 280.678 179.934 283.357 182.622C286.036 185.311 286.451 184.895 284.691 186.658C282.931 188.422 279.125 190.78 279.088 192.323C279.05 193.867 251.109 263.09 251.109 263.09C251.109 263.09 254.214 261.535 251.885 263.868C249.557 266.201 249.557 268.129 249.557 268.129L238.691 341.647L256.338 342.688L273.617 275.664L312.16 213.048C312.16 213.048 315.985 268.885 316.145 272.599C316.306 276.313 318.634 271.646 316.306 276.313C313.977 280.979 312.425 277.868 313.977 280.979C315.529 284.091 308.385 347.43 308.385 347.43H324.493L359.039 216.145C359.039 216.145 371.33 178.613 353.132 160.961Z" fill="#9EC2E6"/>
<path d="M334.738 55.9502L309.727 53.3459L303.247 61.7766L295.698 65.8058C292.503 67.5109 289.866 70.102 288.102 73.2693C286.338 76.4365 285.522 80.0459 285.751 83.6657L294.573 135.093C294.573 135.093 287.122 151.908 292.245 156.093C297.368 160.278 288.284 170.643 299.23 165.427C310.177 160.21 357.442 166.204 357.442 166.204L347.352 137.426L354.889 109.147L355.719 85.4361C355.874 81.0053 354.562 76.6476 351.987 73.0422C349.412 69.4368 345.72 66.7863 341.485 65.5038L340.431 65.1846L334.738 55.9502Z" fill="#1E90FF"/>
<path d="M369.171 36.7352C369.335 43.7998 366.7 50.6405 362.916 56.649C361.791 53.1413 359.769 49.9489 357.661 46.9056C358.724 53.4891 357.592 60.24 354.44 66.1137C354.329 66.1933 354.214 66.2673 354.095 66.3353C351.01 68.195 347.099 68.9482 343.761 67.605C350.657 60.1563 351.534 47.815 345.753 39.4601C344.117 37.0894 342 34.9927 340.986 32.2947C339.385 27.99 340.924 23.2504 341.895 18.7623C342.802 14.5853 342.961 9.61453 340.165 6.55326C340.463 6.12546 340.87 5.78492 341.343 5.56656C341.817 5.34819 342.339 5.25984 342.858 5.31056C344.582 5.55462 345.837 7.05643 346.637 8.6032C347.436 10.1499 347.963 11.8642 349.077 13.2002C351.14 15.7008 354.653 16.292 357.613 17.6099C364.783 20.8102 368.999 28.8741 369.171 36.7352Z" fill="black"/>
<path d="M184.453 373.075C184.452 373.196 184.476 373.317 184.522 373.429C184.569 373.542 184.637 373.644 184.723 373.73C184.808 373.816 184.91 373.884 185.023 373.93C185.135 373.977 185.255 374 185.376 374H381.968C382.213 374 382.447 373.903 382.621 373.729C382.794 373.555 382.891 373.32 382.891 373.075C382.891 372.829 382.794 372.594 382.621 372.42C382.447 372.246 382.213 372.149 381.968 372.149H185.376C185.255 372.149 185.135 372.172 185.023 372.219C184.91 372.265 184.808 372.333 184.723 372.419C184.637 372.505 184.569 372.607 184.522 372.72C184.476 372.832 184.452 372.953 184.453 373.075Z" fill="black"/>
<path d="M370.719 200.474C374.577 200.474 377.705 197.34 377.705 193.474C377.705 189.608 374.577 186.474 370.719 186.474C366.861 186.474 363.734 189.608 363.734 193.474C363.734 197.34 366.861 200.474 370.719 200.474Z" fill="#1E90FF"/>
<path d="M308.819 32.696C309.229 31.2589 306.405 40.0433 307.768 40.2018C313.974 40.9154 322.494 44.6299 326.817 46.3629C327.012 46.3402 327.207 46.3176 327.396 46.2892C327.859 46.2383 328.312 46.1646 328.758 46.0797C338.824 44.1712 342.695 28.6765 342.695 28.535C342.695 27.8384 341.026 8.7067 338.398 8.42359C337.708 8.34853 337.014 8.31072 336.32 8.31032H329.799C328.449 8.01891 327.081 7.82023 325.705 7.71569H325.693C312.564 6.71329 302.213 14.7323 303.18 24.49C303.186 24.5013 303.197 24.5127 303.203 24.524C303.484 24.9431 303.73 25.3395 303.947 25.7189C304.159 26.0757 304.337 26.4155 304.491 26.7383C305.688 29.2301 302.612 32.3656 304.652 32.9508C307.364 33.7292 297.517 59.313 308.254 59.313C303.031 60.8011 307.689 36.6602 308.819 32.696Z" fill="#2F2E41"/>
<path d="M320.54 47.7073C329.067 47.7073 335.98 40.7798 335.98 32.2343C335.98 23.6887 329.067 16.7612 320.54 16.7612C312.012 16.7612 305.099 23.6887 305.099 32.2343C305.099 40.7798 312.012 47.7073 320.54 47.7073Z" fill="#A0616A"/>
<path d="M303.18 25.3338C303.438 25.4697 303.69 25.5943 303.947 25.7189C304.217 25.8491 304.486 25.9794 304.755 26.0983C309.925 28.4486 314.133 28.7091 316.687 25.3338C316.755 23.5578 317.153 21.8102 317.861 20.1803C317.736 22.0017 318.215 23.8134 319.223 25.3338H324.365C329.661 28.8563 332.381 29.2244 328.705 40.7886C327.68 44.011 323.605 62.7618 325.208 65.5424C325.672 65.4915 330.606 44.9535 331.052 44.8686C341.118 42.9601 347.514 26.3418 346.695 25.4018C346.699 22.7284 346.085 20.0904 344.903 17.6942C343.406 14.6583 341.074 12.1153 338.181 10.366C336.456 9.52811 334.659 8.85132 332.81 8.34425C332.764 8.33291 332.724 8.32157 332.678 8.31027C332.112 8.15735 331.533 8.01578 330.955 7.89685C329.76 7.64406 328.552 7.46064 327.336 7.34753C327.251 7.34186 327.165 7.33618 327.085 7.33618C326.599 7.33732 326.123 7.46832 325.705 7.71564C325.699 7.71564 325.699 7.72128 325.693 7.72128C325.395 7.89622 325.134 8.12918 324.926 8.40651C324.56 8.87315 324.363 9.44986 324.365 10.0432H318.639C318.427 10.0432 318.216 10.0488 318.004 10.0602C314.182 10.191 310.547 11.7462 307.81 14.4213C305.072 17.0965 303.43 20.699 303.203 24.524C303.186 24.7958 303.18 25.062 303.18 25.3338Z" fill="black"/>
<path d="M336.94 20.3875C342.558 20.3875 347.112 15.8236 347.112 10.1937C347.112 4.56389 342.558 0 336.94 0C331.322 0 326.768 4.56389 326.768 10.1937C326.768 15.8236 331.322 20.3875 336.94 20.3875Z" fill="black"/>
<path d="M370.798 196.361C371.294 195.576 371.615 194.693 371.737 193.772C371.859 192.851 371.78 191.915 371.506 191.027C371.232 190.14 370.768 189.323 370.148 188.633C369.528 187.943 368.765 187.396 367.913 187.03L367.963 155.062L359.143 152.874L359.36 190.843C358.852 192.327 358.905 193.945 359.508 195.392C360.112 196.838 361.224 198.013 362.634 198.693C364.043 199.373 365.653 199.511 367.158 199.081C368.663 198.652 369.958 197.683 370.798 196.361Z" fill="#A0616A"/>
<path d="M327.119 78.928L340.845 69.5802C341.485 69.1441 342.209 68.847 342.971 68.708C343.733 68.569 344.515 68.5911 345.268 68.7729C346.02 68.9548 346.727 69.2923 347.341 69.7639C347.956 70.2355 348.466 70.8307 348.837 71.5113L372.435 114.724L372.525 177.967L357.793 177.042L351.745 124.829L327.119 78.928Z" fill="#1E90FF"/>
<path d="M221.704 222.353H75.0115C71.8208 222.353 68.7609 223.623 66.5047 225.884C64.2486 228.145 62.9811 231.212 62.9811 234.409C62.9811 237.606 64.2486 240.673 66.5047 242.934C68.7609 245.195 71.8208 246.465 75.0115 246.465H221.704C224.894 246.465 227.954 245.195 230.211 242.934C232.467 240.673 233.734 237.606 233.734 234.409C233.734 231.212 232.467 228.145 230.211 225.884C227.954 223.623 224.894 222.353 221.704 222.353Z" fill="white"/>
<path d="M221.704 247.243H75.0115C71.615 247.243 68.3576 245.891 65.9559 243.484C63.5543 241.077 62.205 237.813 62.205 234.409C62.205 231.006 63.5543 227.741 65.9559 225.335C68.3576 222.928 71.615 221.576 75.0115 221.576H221.704C225.1 221.576 228.358 222.928 230.759 225.335C233.161 227.741 234.51 231.006 234.51 234.409C234.51 237.813 233.161 241.077 230.759 243.484C228.358 245.891 225.1 247.243 221.704 247.243ZM75.0115 223.131C72.0267 223.131 69.1642 224.319 67.0536 226.435C64.943 228.55 63.7573 231.418 63.7573 234.409C63.7573 237.4 64.943 240.269 67.0536 242.384C69.1642 244.499 72.0267 245.687 75.0115 245.687H221.704C224.689 245.687 227.551 244.499 229.662 242.384C231.772 240.269 232.958 237.4 232.958 234.409C232.958 231.418 231.772 228.55 229.662 226.435C227.551 224.319 224.689 223.131 221.704 223.131H75.0115Z" fill="#1E90FF"/>
<path d="M230.354 274.965H165.618C164.71 274.965 163.84 274.604 163.199 273.961C162.557 273.318 162.197 272.446 162.197 271.537C162.197 270.628 162.557 269.756 163.199 269.113C163.84 268.47 164.71 268.108 165.618 268.108H230.354C231.261 268.108 232.131 268.47 232.773 269.113C233.415 269.756 233.775 270.628 233.775 271.537C233.775 272.446 233.415 273.318 232.773 273.961C232.131 274.604 231.261 274.965 230.354 274.965Z" fill="#1E90FF"/>
</g>
<defs>
<clipPath id="clip0_26_80">
<rect width="383" height="374" fill="white"/>
</clipPath>
</defs>
</svg>
