<svg width="649" height="486" viewBox="0 0 649 486" fill="none" xmlns="http://www.w3.org/2000/svg">
<g clip-path="url(#clip0_21_47)">
<path d="M649 484.598C649 485.375 648.375 486 647.597 486H1.40267C0.624719 486 0 485.375 0 484.598C0 483.82 0.624719 483.196 1.40267 483.196H647.597C648.375 483.196 649 483.82 649 484.598Z" fill="black"/>
<path d="M514.696 99.9048H134.463C129.207 99.9048 124.932 95.6306 124.932 90.3769V61.092C124.932 55.8383 129.207 51.5641 134.463 51.5641H514.696C519.951 51.5641 524.227 55.8383 524.227 61.092V90.3769C524.227 95.6306 519.951 99.9048 514.696 99.9048Z" fill="white" stroke="#1E90FF" stroke-width="2" stroke-linecap="round" stroke-linejoin="round"/>
<path d="M514.696 280.433H134.463C129.207 280.433 124.932 276.159 124.932 270.905V241.62C124.932 236.367 129.207 232.092 134.463 232.092H514.696C519.951 232.092 524.227 236.367 524.227 241.62V270.905C524.227 276.159 519.951 280.433 514.696 280.433Z" fill="white" stroke="#1E90FF" stroke-width="2" stroke-linecap="round" stroke-linejoin="round"/>
<path d="M244.77 410.05H133.284C128.029 410.05 123.753 405.776 123.753 400.523V371.238C123.753 365.984 128.029 361.71 133.284 361.71H244.77C250.026 361.71 254.301 365.984 254.301 371.238V400.523C254.301 405.776 250.026 410.05 244.77 410.05Z" fill="#1E90FF"/>
<path d="M125.767 1.17834H209.161" stroke="#BAB7C9" stroke-width="2" stroke-linecap="round" stroke-linejoin="round"/>
<path d="M125.767 181.707H280.679" stroke="#BAB7C9" stroke-width="2" stroke-linecap="round" stroke-linejoin="round"/>
<path d="M468.694 432.734L455.58 441.115L467.472 459.71L480.585 451.33L468.694 432.734Z" fill="#F1A1A4"/>
<path d="M427.104 182.763L410.539 188.418L410.279 164.506L425.354 164.337L427.104 182.763Z" fill="#F1A1A4"/>
<path d="M412.213 171.108C421.362 171.108 428.779 163.694 428.779 154.548C428.779 145.402 421.362 137.987 412.213 137.987C403.064 137.987 395.647 145.402 395.647 154.548C395.647 163.694 403.064 171.108 412.213 171.108Z" fill="#F1A1A4"/>
<path d="M416.746 152.859C413.979 152.806 412.121 150.031 411.013 147.479C409.904 144.942 408.765 142.007 406.189 140.976C404.079 140.135 400.44 146.004 398.759 144.476C397.008 142.878 398.606 134.533 400.433 133.028C402.26 131.522 404.767 131.201 407.122 131.056C412.893 130.728 418.696 131.125 424.368 132.248C427.869 132.936 431.492 133.998 434.038 136.497C437.272 139.669 438.143 144.499 438.418 149.015C438.709 153.639 438.487 158.484 436.286 162.565C434.076 166.638 429.405 169.672 424.872 168.694C424.391 166.24 424.819 163.726 424.972 161.22C425.125 158.728 424.903 156.038 423.359 154.067C421.814 152.095 418.558 151.346 416.807 153.127" fill="black"/>
<path d="M437.188 158.369C438.831 157.139 440.796 156.099 442.837 156.329C445.046 156.565 446.927 158.369 447.515 160.509C448.104 162.649 447.492 165.018 446.155 166.791C444.817 168.564 442.806 169.74 440.666 170.344C439.427 170.696 438.074 170.841 436.882 170.344C435.131 169.611 434.168 167.402 434.833 165.621" fill="black"/>
<path d="M375.542 314.818C374.502 320.267 376.574 325.219 380.182 325.869C383.783 326.518 387.552 322.621 388.599 317.172C389.05 315.002 388.951 312.755 388.308 310.623L401.052 225.215L383.882 222.188L378.233 308.819C376.849 310.592 375.924 312.648 375.542 314.841L375.542 314.818Z" fill="#F1A1A4"/>
<path d="M410.233 177.444L398.537 177.574C390.281 178.911 388.087 183.351 386.306 191.513C383.577 203.962 380.091 220.553 380.824 220.782C381.994 221.164 402 230.304 412.129 228.042L410.241 177.444L410.233 177.444Z" fill="#1E90FF"/>
<path d="M424.598 448.901L409.035 449.075L409.281 471.144L424.845 470.97L424.598 448.901Z" fill="#F1A1A4"/>
<path d="M394.233 484.679C392.589 484.702 391.145 484.679 390.044 484.587C385.9 484.259 381.933 481.248 379.922 479.49C379.02 478.703 378.722 477.419 379.173 476.319C379.494 475.532 380.152 474.928 380.977 474.676L391.871 471.435L409.43 459.307L409.629 459.659C409.706 459.789 411.479 462.899 412.083 465.008C412.312 465.811 412.266 466.476 411.93 466.995C411.701 467.355 411.38 467.569 411.12 467.698C411.441 468.027 412.45 468.7 415.554 469.158C420.064 469.831 420.974 465.138 421.004 464.94L421.035 464.779L421.165 464.687C423.298 463.274 424.605 462.639 425.063 462.769C425.354 462.846 425.82 462.991 427.242 475.707C427.372 476.105 428.305 479.024 427.724 481.836C427.097 484.893 413.757 483.984 411.097 483.777C411.02 483.785 401.052 484.61 394.218 484.679H394.241L394.233 484.679Z" fill="black"/>
<path d="M451.697 481.011C449.87 481.034 448.188 480.828 446.988 480.629C445.811 480.43 444.878 479.506 444.679 478.329C444.526 477.48 444.779 476.632 445.337 475.99L452.859 467.477L461.329 447.898L461.688 448.089C461.818 448.158 464.968 449.862 466.604 451.329C467.223 451.887 467.536 452.475 467.536 453.102C467.536 453.53 467.376 453.882 467.215 454.118C467.666 454.225 468.874 454.256 471.749 453.01C475.93 451.192 474.218 446.729 474.141 446.553L474.08 446.4L474.149 446.262C475.212 443.939 475.991 442.701 476.442 442.564C476.733 442.487 477.199 442.342 485.142 452.384C485.463 452.651 487.802 454.63 488.796 457.32C489.874 460.247 478.094 466.529 475.709 467.76C475.64 467.821 463.324 476.968 458.264 479.59C456.253 480.629 453.86 480.973 451.682 480.988L451.705 481.011L451.697 481.011Z" fill="black"/>
<path d="M433.977 264.166L390.403 264.648L386.902 305.212L405.868 454.753L428.114 454.501L418.26 368.122L455.213 445.804L474.829 431.742L445.841 359.158C445.841 359.158 455.206 295.545 447.118 279.817C439.038 264.09 433.985 264.143 433.985 264.143V264.166L433.977 264.166Z" fill="#9EC3E7"/>
<path d="M455.672 266.398L386.466 267.17L406.235 177.497L436.393 177.153L455.672 266.398Z" fill="#1E90FF"/>
<path d="M462.43 313.855C463.592 319.289 461.627 324.279 458.042 325.005C454.449 325.739 450.596 321.925 449.442 316.492C448.945 314.329 448.991 312.082 449.579 309.935L434.932 224.825L452.026 221.416L459.601 307.91C461.023 309.652 461.994 311.693 462.43 313.871V313.855Z" fill="#F1A1A4"/>
<path d="M424.704 177.283L436.4 177.153C444.679 178.315 446.973 182.701 448.945 190.825C451.949 203.213 455.794 219.712 455.076 219.964C453.906 220.362 434.122 229.945 423.947 227.912L424.719 177.283L424.704 177.283Z" fill="#1E90FF"/>
</g>
<defs>
<clipPath id="clip0_21_47">
<rect width="649" height="486" fill="white"/>
</clipPath>
</defs>
</svg>
